HIERARCHY
ROOT RootJoint
{
    OFFSET   0.000000   0.000000   0.000000
    CHANNELS 6 Xposition Yposition Zposition Xrotation Yrotation Zrotation
    JOINT pelvis_lowerback
    {
        OFFSET   0.000000   0.093605   0.000000
        CHANNELS 3 Xrotation Yrotation Zrotation
        JOINT lowerback_torso
        {
            OFFSET   0.000000   0.100000   0.000000
            CHANNELS 3 Xrotation Yrotation Zrotation
            JOINT torso_head
            {
                OFFSET   0.000000   0.282350   0.000000
                CHANNELS 3 Xrotation Yrotation Zrotation
                End Site
                {
                    OFFSET   0.000000   0.192650   0.000000
                }
            }
            JOINT rTorso_Clavicle
            {
                OFFSET  -0.001000   0.157500   0.000000
                CHANNELS 3 Xrotation Yrotation Zrotation
                JOINT rShoulder
                {
                    OFFSET  -0.117647   0.000000   0.000000
                    CHANNELS 3 Xrotation Yrotation Zrotation
                    JOINT rElbow
                    {
                        OFFSET  -0.245000   0.000000   0.000000
                        CHANNELS 3 Xrotation Yrotation Zrotation
                        JOINT rWrist
                        {
                            OFFSET  -0.240000   0.000000   0.000000
                            CHANNELS 3 Xrotation Yrotation Zrotation
                            End Site
                            {
                                OFFSET  -0.116353  -0.002500   0.000000
                            }
                        }
                    }
                }
            }
            JOINT lTorso_Clavicle
            {
                OFFSET   0.001000   0.157500   0.000000
                CHANNELS 3 Xrotation Yrotation Zrotation
                JOINT lShoulder
                {
                    OFFSET   0.117647   0.000000   0.000000
                    CHANNELS 3 Xrotation Yrotation Zrotation
                    JOINT lElbow
                    {
                        OFFSET   0.245000   0.000000   0.000000
                        CHANNELS 3 Xrotation Yrotation Zrotation
                        JOINT lWrist
                        {
                            OFFSET   0.240000   0.000000   0.000000
                            CHANNELS 3 Xrotation Yrotation Zrotation
                            End Site
                            {
                                OFFSET   0.116353  -0.002500   0.000000
                            }
                        }
                    }
                }
            }
        }
    }
    JOINT rHip
    {
        OFFSET  -0.100000  -0.051395   0.000000
        CHANNELS 3 Xrotation Yrotation Zrotation
        JOINT rKnee
        {
            OFFSET   0.000000  -0.410000   0.000000
            CHANNELS 3 Xrotation Yrotation Zrotation
            JOINT rAnkle
            {
                OFFSET   0.000000  -0.390000   0.000000
                CHANNELS 3 Xrotation Yrotation Zrotation
                JOINT rToeJoint
                {
                    OFFSET   0.000000  -0.050000   0.130000
                    CHANNELS 3 Xrotation Yrotation Zrotation
                    End Site
                    {
                        OFFSET  -0.010000   0.002000   0.060000
                    }
                }
            }
        }
    }
    JOINT lHip
    {
        OFFSET   0.100000  -0.051395   0.000000
        CHANNELS 3 Xrotation Yrotation Zrotation
        JOINT lKnee
        {
            OFFSET   0.000000  -0.410000   0.000000
            CHANNELS 3 Xrotation Yrotation Zrotation
            JOINT lAnkle
            {
                OFFSET   0.000000  -0.390000   0.000000
                CHANNELS 3 Xrotation Yrotation Zrotation
                JOINT lToeJoint
                {
                    OFFSET   0.000000  -0.050000   0.130000
                    CHANNELS 3 Xrotation Yrotation Zrotation
                    End Site
                    {
                        OFFSET   0.010000   0.002000   0.060000
                    }
                }
            }
        }
    }
}
MOTION
Frames: 12
Frame Time:   0.008333
 -2.376719   0.925631   3.975860   0.000000   0.000000   0.000000   0.000000   0.000000   0.000000   0.000000   0.000000   0.000000   0.000000   0.000000   0.000000   0.000000   0.000000   0.000000   0.000000   0.000000   0.000000   0.000000   0.000000   0.000000   0.000000   0.000000   0.000000   0.000000   0.000000   0.000000   0.000000   0.000000   0.000000   0.000000   0.000000   0.000000   0.000000   0.000000   0.000000   0.000000   0.000000   0.000000   0.000000   0.000000   0.000000   0.000000   0.000000   0.000000   0.000000   0.000000   0.000000   0.000000   0.000000   0.000000   0.000000   0.000000   0.000000   0.000000   0.000000   0.000000   0.000000   0.000000   0.000000
 -2.376458   0.924449   3.975794  -0.488740  -0.004955  -0.009158   0.678237   0.051265   0.030486   0.199356  -0.122796   0.094940  -0.043861  -0.099831  -0.013830  -0.133014  -0.695981  -0.555742  -0.492411  -0.520105   0.170733  -0.009167   3.736853   0.008001  -0.006199  -0.716328   0.244129  -0.022193   0.680635   0.411350   0.437091   0.529159  -0.628282   0.003306  -3.168502   0.022122   0.118837   0.501861   0.039822   0.221115   0.127654  -0.248058   0.853480   0.001924   0.000895  -1.115348  -0.221434  -0.136786   0.053880   0.000184  -0.000046   0.072610  -0.127134   0.229917   1.608925  -0.003132  -0.001800  -1.501382   0.286020   0.312396  -0.096491   0.000447  -0.000128
 -2.376157   0.922518   3.975780  -1.046245  -0.085443  -0.008715   1.366667   0.112546   0.076729   0.516301  -0.235275   0.181993  -0.006923  -0.198042  -0.005951  -0.266195  -1.444137  -1.224172  -0.950710  -1.016874   0.227701  -0.024783   7.557942   0.011625  -0.025131  -0.554675   0.399118  -0.040013   1.427684   0.825180   0.856745   1.043992  -1.213685   0.006191  -6.196918   0.039785   0.259431   0.223998   0.050781   0.453115   0.246091  -0.703691   1.768189   0.005193   0.000885  -2.158145  -0.430214  -0.270039   0.060858   0.000183  -0.000047   0.239673  -0.235779   0.651875   3.343964  -0.009095  -0.003891  -2.899114   0.552853   0.613954  -0.220607   0.001142  -0.000183
 -2.376006   0.922505   3.975757  -1.694220  -0.165787  -0.067101   2.110318   0.151248   0.163148   0.891244  -0.352654   0.275965   0.051535  -0.290816   0.012921  -0.398405  -2.171019  -1.766172  -1.376263  -1.501016   0.291035  -0.033775  11.370938   0.012233  -0.040009  -0.259393   0.391374  -0.061036   2.146231   1.065255   1.253909   1.535088  -1.826180   0.015086  -9.022842   0.052528   0.398901  -0.162264   0.118401   0.660684   0.180408  -0.682661   2.756239   0.004433  -0.000702  -2.856620  -0.773382  -0.143488   0.122125   0.000098  -0.000303   0.287874  -0.200342   0.896306   4.761107  -0.009743  -0.003196  -4.152205   0.902563   0.717744  -0.223054   0.000920  -0.000154
 -2.375950   0.922491   3.975983  -2.337278  -0.374986  -0.100240   2.784799   0.230905   0.208921   1.261367  -0.426099   0.341663   0.121461  -0.376880   0.034724  -0.525627  -2.841037  -2.345947  -1.769034  -1.941511   0.324983  -0.043890  14.941237   0.013616  -0.054336   0.135979   0.434075  -0.081817   2.843180   1.335286   1.632390   2.006660  -2.400783   0.021700 -11.655932   0.059266   0.533101  -0.535891   0.075580   0.879481   0.194203  -0.674132   3.725583   0.003609  -0.002346  -3.624375  -1.004923  -0.169617   0.153318   0.000090  -0.000361   0.404733  -0.274271   1.316680   6.267235  -0.013368  -0.005405  -5.372560   1.118119   1.006140  -0.310579   0.001254  -0.000080
 -2.375863   0.922499   3.976393  -2.938586  -0.655134  -0.076518   3.386401   0.319271   0.209056   1.592556  -0.476492   0.363041   0.186990  -0.457486   0.053187  -0.651395  -3.461325  -2.933197  -2.135774  -2.348783   0.321481  -0.053568  18.275671   0.015780  -0.066927   0.541869   0.434821  -0.104717   3.510079   1.601196   1.990354   2.455889  -2.931295   0.026431 -14.109207   0.061531   0.661524  -0.874546   0.024796   1.079856   0.202841  -0.737761   4.644985   0.002938  -0.004164  -4.343056  -1.213981  -0.204692   0.173164   0.000083  -0.000373   0.569126  -0.346660   1.838592   7.717007  -0.018323  -0.007435  -6.509521   1.313981   1.280944  -0.384910   0.001542   0.000029
 -2.375693   0.922543   3.976931  -3.492841  -0.970415   0.002929   3.924832   0.403143   0.173181   1.883539  -0.519003   0.344521   0.245034  -0.533077   0.068395  -0.776308  -4.039914  -3.518974  -2.479554  -2.729044   0.288797  -0.061827  21.387626   0.018123  -0.077548   0.932224   0.385935  -0.129418   4.140434   1.852673   2.328667   2.878774  -3.427254   0.029593 -16.396412   0.060880   0.784040  -1.182397  -0.024845   1.257710   0.201465  -0.875017   5.513637   0.002414  -0.005823  -5.014225  -1.406174  -0.244117   0.191600   0.000078  -0.000381   0.763741  -0.410427   2.435772   9.088769  -0.023635  -0.008651  -7.570242   1.493242   1.541861  -0.449248   0.001770   0.000125
 -2.375510   0.922308   3.977451  -3.811266  -1.365771  -0.016937   4.276264   0.478707   0.239111   2.010348  -0.548103   0.368939   0.306623  -0.648199   0.040539  -0.872149  -4.713556  -4.086310  -2.709354  -3.011319   0.223046  -0.068820  24.746397   0.018910  -0.028816   1.171712   0.193694  -0.057393   4.921616   2.145698   2.820091   3.307066  -4.028858   0.034970 -19.066860   0.065370   0.904373  -1.312309  -0.059622   1.025469   0.208104  -0.911330   6.693216   0.001831  -0.008821  -5.892218  -1.668031  -0.378524   0.142291  -0.000009  -0.000020   0.857977  -0.407421   3.218938  10.145221  -0.026702  -0.008784  -8.303304   1.716365   1.696512  -0.362685   0.000704  -0.000012
 -2.375223   0.921920   3.978095  -4.097076  -1.733999  -0.045481   4.581043   0.523870   0.321416   2.095792  -0.588929   0.407912   0.359181  -0.759876   0.017642  -0.968955  -5.352816  -4.617807  -2.924885  -3.272018   0.157339  -0.072112  27.895960   0.020170   0.022362   1.521344  -0.022607   0.008861   5.663011   2.407880   3.286648   3.701460  -4.605454   0.038408 -21.574010   0.066086   1.024761  -1.561850  -0.128318   0.768445   0.201016  -0.948297   7.861771   0.001343  -0.011050  -6.687002  -1.913712  -0.504623   0.082570  -0.000096   0.000313   0.990305  -0.406548   4.056042  11.105380  -0.028827  -0.008286  -8.986381   1.924050   1.844203  -0.260568  -0.000315  -0.000127
 -2.374789   0.921448   3.978849  -4.361348  -2.072757  -0.062284   4.846673   0.549471   0.407225   2.158512  -0.641965   0.450456   0.404928  -0.864811  -0.001551  -1.065582  -5.956615  -5.109389  -3.126519  -3.520334   0.097817  -0.072366  30.835092   0.021366   0.072660   1.873661  -0.235224   0.067824   6.351159   2.640818   3.726816   4.061686  -5.154438   0.040099 -23.916545   0.064241   1.139463  -1.831521  -0.211478   0.515264   0.189968  -1.008572   8.989132   0.000996  -0.012452  -7.415006  -2.140922  -0.625581   0.030378  -0.000157   0.000519   1.150309  -0.404247   4.905578  12.005460  -0.030223  -0.007400  -9.624239   2.116821   1.984746  -0.164017  -0.001099  -0.000194
 -2.374185   0.920925   3.979691  -4.605227  -2.386137  -0.061597   5.078940   0.560275   0.493732   2.203679  -0.704665   0.493822   0.445096  -0.962914  -0.018458  -1.160935  -6.526793  -5.562429  -3.314535  -3.757507   0.045728  -0.070349  33.576592   0.022248   0.121983   2.204533  -0.434948   0.120475   6.988477   2.847951   4.141863   4.389894  -5.676370   0.040294 -26.104778   0.060792   1.248534  -2.101216  -0.304937   0.270238   0.178323  -1.099061  10.067468   0.000795  -0.013203  -8.087964  -2.350113  -0.743038  -0.015787  -0.000200   0.000635   1.328299  -0.399237   5.748018  12.852549  -0.030962  -0.006317 -10.219807   2.295609   2.118168  -0.073839  -0.001675  -0.000226
 -2.373400   0.920370   3.980602  -4.829590  -2.678129  -0.043172   5.283128   0.559299   0.581221   2.234865  -0.774532   0.538196   0.480536  -1.054536  -0.033588  -1.254310  -7.064828  -5.979564  -3.489542  -3.983850   0.000822  -0.066705  36.133593   0.022697   0.170179   2.510827  -0.619577   0.167643   7.578852   3.032747   4.533043   4.688976  -6.171591   0.039251 -28.148732   0.056408   1.352267  -2.366935  -0.406135   0.034221   0.167702  -1.220440  11.094419   0.000724  -0.013478  -8.712884  -2.542336  -0.857503  -0.057113  -0.000230   0.000691   1.517280  -0.391253   6.573193  13.649388  -0.031118  -0.005172 -10.775961   2.461338   2.244620   0.009725  -0.002075  -0.000235
